<svg width="14" height="14" viewBox="0 0 14 14" fill="none" xmlns="http://www.w3.org/2000/svg">
<path d="M6.52966 0.313752C6.70367 -0.104613 7.29633 -0.104614 7.47034 0.313751L9.03632 4.07881C9.10967 4.25518 9.27554 4.37569 9.46595 4.39096L13.5306 4.71682C13.9823 4.75303 14.1654 5.31668 13.8213 5.61146L10.7245 8.26426C10.5794 8.38852 10.516 8.58351 10.5604 8.76932L11.5065 12.7358C11.6116 13.1765 11.1322 13.5249 10.7455 13.2887L7.26553 11.1631C7.10251 11.0636 6.89749 11.0636 6.73447 11.1631L3.25453 13.2887C2.86784 13.5249 2.38837 13.1765 2.4935 12.7358L3.43965 8.76932C3.48397 8.58351 3.42061 8.38852 3.27554 8.26426L0.178673 5.61146C-0.165445 5.31668 0.0176964 4.75303 0.469357 4.71682L4.53405 4.39096C4.72446 4.37569 4.89033 4.25518 4.96369 4.07881L6.52966 0.313752Z" fill="#343839"/>
</svg>
