<svg width="14" height="14" viewBox="0 0 14 14" fill="none" xmlns="http://www.w3.org/2000/svg">
<path d="M6.52966 0.314001C6.70367 -0.104364 7.29633 -0.104365 7.47034 0.314L9.03632 4.07906C9.10967 4.25543 9.27554 4.37594 9.46595 4.3912L13.5306 4.71707C13.9823 4.75328 14.1654 5.31693 13.8213 5.6117L10.7245 8.2645C10.5794 8.38877 10.516 8.58376 10.5604 8.76957L11.5065 12.736C11.6116 13.1768 11.1322 13.5251 10.7455 13.2889L7.26553 11.1634C7.10251 11.0638 6.89749 11.0638 6.73447 11.1634L3.25453 13.2889C2.86784 13.5251 2.38837 13.1768 2.4935 12.736L3.43965 8.76957C3.48397 8.58376 3.42061 8.38877 3.27554 8.2645L0.178673 5.61171C-0.165445 5.31693 0.0176964 4.75328 0.469357 4.71707L4.53405 4.3912C4.72446 4.37594 4.89033 4.25543 4.96369 4.07906L6.52966 0.314001Z" fill="#343839"/>
</svg>
