<svg width="38" height="10" viewBox="0 0 38 10" fill="none" xmlns="http://www.w3.org/2000/svg">
<path fill-rule="evenodd" clip-rule="evenodd" d="M4.50361 0.00097661H1.5845C1.38474 0.00097661 1.21485 0.146141 1.1837 0.34325L0.00306222 7.82785C-0.0204039 7.97559 0.0939847 8.1087 0.243809 8.1087H1.63742C1.83718 8.1087 2.00707 7.96354 2.03822 7.76603L2.35665 5.74735C2.38737 5.54965 2.55767 5.40468 2.75702 5.40468H3.68111C5.60403 5.40468 6.71373 4.47424 7.0037 2.63054C7.13426 1.82394 7.00923 1.19015 6.63136 0.746157C6.21656 0.258915 5.48057 0.00097661 4.50361 0.00097661ZM4.84039 2.73463C4.68079 3.78199 3.88045 3.78199 3.1066 3.78199H2.6661L2.97513 1.82591C2.99348 1.7078 3.09591 1.6207 3.21544 1.6207H3.41733C3.94447 1.6207 4.44178 1.6207 4.69876 1.92111C4.85185 2.10044 4.89886 2.36668 4.84039 2.73463ZM13.2295 2.70105H11.8316C11.7125 2.70105 11.6096 2.78815 11.5913 2.90645L11.5294 3.29732L11.4317 3.1557C11.129 2.71645 10.4543 2.56971 9.78073 2.56971C8.23587 2.56971 6.91659 3.73953 6.65961 5.38058C6.52608 6.19904 6.7159 6.98175 7.18029 7.52765C7.60635 8.0295 8.21592 8.23866 8.94104 8.23866C10.1857 8.23866 10.876 7.43837 10.876 7.43837L10.8136 7.82687C10.7901 7.97539 10.9045 8.1085 11.0534 8.1085H12.3126C12.5129 8.1085 12.6818 7.96334 12.7134 7.76583L13.4689 2.9819C13.4928 2.83476 13.3789 2.70105 13.2295 2.70105ZM11.2809 5.42146C11.146 6.21997 10.5122 6.756 9.70389 6.756C9.29797 6.756 8.97343 6.62585 8.76524 6.37916C8.55863 6.13426 8.48001 5.78547 8.54579 5.39717C8.67181 4.60538 9.31634 4.05198 10.1124 4.05198C10.5092 4.05198 10.832 4.18371 11.0445 4.43256C11.2574 4.68399 11.342 5.03475 11.2809 5.42146ZM19.2697 2.70085H20.6745C20.8712 2.70085 20.986 2.92146 20.8742 3.08282L16.2021 9.826C16.1265 9.93522 16.0018 10.0002 15.8687 10.0002H14.4657C14.2681 10.0002 14.1528 9.7778 14.2671 9.61605L15.7219 7.5628L14.1747 3.02259C14.1212 2.86478 14.2377 2.70085 14.4056 2.70085H15.7859C15.9653 2.70085 16.1235 2.81857 16.1753 2.9902L16.9964 5.73234L18.9339 2.8788C19.0098 2.76741 19.1358 2.70085 19.2697 2.70085Z" fill="#253B80"/>
<path fill-rule="evenodd" clip-rule="evenodd" d="M34.5009 7.82727L35.6989 0.2058C35.7173 0.0874949 35.8198 0.000395007 35.9389 0H37.2876C37.4366 0 37.5509 0.133512 37.5274 0.281245L36.346 7.76545C36.3152 7.96296 36.1453 8.10812 35.9452 8.10812H34.7407C34.5918 8.10812 34.4774 7.975 34.5009 7.82727ZM25.326 0.000395544H22.4064C22.2071 0.000395544 22.0372 0.14556 22.006 0.342669L20.8254 7.82727C20.8019 7.975 20.9162 8.10812 21.0654 8.10812H22.5634C22.7027 8.10812 22.8218 8.0066 22.8435 7.86835L23.1785 5.74677C23.2093 5.54906 23.3796 5.4041 23.5789 5.4041H24.5025C26.4258 5.4041 27.5354 4.47366 27.8255 2.62996C27.9565 1.82335 27.8307 1.18956 27.453 0.745576C27.0384 0.258334 26.303 0.000395544 25.326 0.000395544ZM25.6628 2.73404C25.5036 3.78141 24.7032 3.78141 23.9289 3.78141H23.4888L23.7983 1.82533C23.8167 1.70722 23.9182 1.62012 24.0381 1.62012H24.24C24.7668 1.62012 25.2646 1.62012 25.5214 1.92053C25.6747 2.09986 25.7213 2.36609 25.6628 2.73404ZM34.0512 2.70047H32.6543C32.5342 2.70047 32.4322 2.78757 32.4143 2.90587L32.3524 3.29673L32.2543 3.15512C31.9517 2.71587 31.2773 2.56913 30.6037 2.56913C29.0589 2.56913 27.74 3.73894 27.483 5.38C27.3499 6.19846 27.5389 6.98116 28.0033 7.52706C28.4301 8.02892 29.0389 8.23808 29.764 8.23808C31.0087 8.23808 31.6988 7.43779 31.6988 7.43779L31.6366 7.82628C31.6131 7.97481 31.7275 8.10792 31.8774 8.10792H33.136C33.3353 8.10792 33.5052 7.96276 33.5364 7.76525L34.2923 2.98132C34.3155 2.83418 34.2011 2.70047 34.0512 2.70047ZM32.1028 5.42088C31.9686 6.21939 31.334 6.75542 30.5255 6.75542C30.1204 6.75542 29.7953 6.62526 29.5869 6.37858C29.3802 6.13368 29.3026 5.78489 29.3676 5.39659C29.4942 4.6048 30.138 4.05139 30.934 4.05139C31.331 4.05139 31.6536 4.18313 31.8663 4.43198C32.08 4.6834 32.1646 5.03417 32.1028 5.42088Z" fill="#179BD7"/>
</svg>
