<svg width="14" height="14" viewBox="0 0 14 14" fill="none" xmlns="http://www.w3.org/2000/svg">
<path d="M6.52967 0.313999C6.70367 -0.104363 7.29633 -0.104365 7.47033 0.313997L9.0363 4.07903C9.10966 4.2554 9.27552 4.37591 9.46593 4.39117L13.5306 4.71703C13.9822 4.75324 14.1654 5.31689 13.8213 5.61166L10.7244 8.26444C10.5794 8.38871 10.516 8.58369 10.5603 8.7695L11.5065 12.7359C11.6116 13.1767 11.1321 13.525 10.7454 13.2888L7.26552 11.1633C7.10251 11.0637 6.89749 11.0637 6.73448 11.1633L3.25456 13.2888C2.86787 13.525 2.3884 13.1767 2.49354 12.7359L3.43968 8.7695C3.484 8.58369 3.42064 8.38871 3.27557 8.26444L0.178726 5.61166C-0.165389 5.31689 0.0177506 4.75324 0.469407 4.71703L4.53407 4.39117C4.72448 4.37591 4.89034 4.2554 4.9637 4.07903L6.52967 0.313999Z" fill="#343839"/>
</svg>
