<svg width="14" height="14" viewBox="0 0 14 14" fill="none" xmlns="http://www.w3.org/2000/svg">
<path d="M6.52968 0.312995C6.70368 -0.105355 7.29632 -0.105357 7.47032 0.312994L9.03624 4.07792C9.1096 4.25428 9.27546 4.37479 9.46586 4.39005L13.5304 4.71591C13.9821 4.75211 14.1652 5.31575 13.8211 5.61051L10.7243 8.26322C10.5793 8.38748 10.5159 8.58246 10.5602 8.76826L11.5063 12.7346C11.6115 13.1753 11.132 13.5236 10.7453 13.2875L7.26552 11.162C7.10251 11.0624 6.89749 11.0624 6.73448 11.162L3.25466 13.2875C2.86799 13.5236 2.38853 13.1753 2.49366 12.7346L3.43977 8.76826C3.48409 8.58246 3.42074 8.38748 3.27568 8.26322L0.178915 5.61051C-0.16519 5.31575 0.0179445 4.75211 0.469589 4.71591L4.53414 4.39005C4.72454 4.37479 4.8904 4.25428 4.96376 4.07792L6.52968 0.312995Z" fill="#343839"/>
</svg>
