<svg width="14" height="14" viewBox="0 0 14 14" fill="none" xmlns="http://www.w3.org/2000/svg">
<path d="M6.52967 0.313998C6.70367 -0.104363 7.29633 -0.104365 7.47033 0.313997L9.0363 4.07902C9.10965 4.25539 9.27552 4.3759 9.46592 4.39117L13.5306 4.71703C13.9822 4.75324 14.1654 5.31688 13.8213 5.61166L10.7244 8.26443C10.5794 8.3887 10.516 8.58368 10.5603 8.76949L11.5065 12.7359C11.6116 13.1766 11.1321 13.525 10.7454 13.2888L7.26552 11.1633C7.10251 11.0637 6.89749 11.0637 6.73448 11.1633L3.25456 13.2888C2.86788 13.525 2.38841 13.1766 2.49354 12.7359L3.43968 8.76949C3.484 8.58368 3.42065 8.3887 3.27558 8.26443L0.178733 5.61166C-0.165381 5.31689 0.0177584 4.75324 0.469415 4.71703L4.53408 4.39117C4.72448 4.3759 4.89035 4.25539 4.9637 4.07902L6.52967 0.313998Z" fill="#141718"/>
</svg>
