<svg width="14" height="14" viewBox="0 0 14 14" fill="none" xmlns="http://www.w3.org/2000/svg">
<path d="M6.52966 0.313006C6.70367 -0.105359 7.29633 -0.10536 7.47034 0.313005L9.03632 4.07806C9.10967 4.25444 9.27554 4.37494 9.46595 4.39021L13.5306 4.71607C13.9823 4.75228 14.1654 5.31594 13.8213 5.61071L10.7245 8.26351C10.5794 8.38778 10.516 8.58277 10.5604 8.76857L11.5065 12.735C11.6116 13.1758 11.1322 13.5241 10.7455 13.2879L7.26553 11.1624C7.10251 11.0628 6.89749 11.0628 6.73447 11.1624L3.25453 13.2879C2.86784 13.5241 2.38837 13.1758 2.4935 12.735L3.43965 8.76857C3.48397 8.58277 3.42061 8.38778 3.27554 8.26351L0.178673 5.61071C-0.165445 5.31594 0.0176964 4.75228 0.469357 4.71607L4.53405 4.39021C4.72446 4.37494 4.89033 4.25444 4.96369 4.07806L6.52966 0.313006Z" fill="#343839"/>
</svg>
