<svg width="19" height="15" viewBox="0 0 19 15" fill="none" xmlns="http://www.w3.org/2000/svg">
<path fill-rule="evenodd" clip-rule="evenodd" d="M9.85791 3.30249C9.53168 3.61555 9.01659 3.61555 8.69037 3.30249L8.10661 2.74228C7.42333 2.08657 6.50028 1.68621 5.48017 1.68621C3.38482 1.68621 1.68621 3.38482 1.68621 5.48017C1.68621 7.48898 2.77363 9.14772 4.34347 10.5106C5.91464 11.8746 7.79314 12.7793 8.91552 13.241C9.1502 13.3375 9.39808 13.3375 9.63276 13.241C10.7551 12.7793 12.6336 11.8746 14.2048 10.5106C15.7747 9.14771 16.8621 7.48897 16.8621 5.48017C16.8621 3.38482 15.1635 1.68621 13.0681 1.68621C12.048 1.68621 11.1249 2.08657 10.4417 2.74228L9.85791 3.30249ZM9.27414 1.52566C8.28948 0.580733 6.95265 0 5.48017 0C2.45356 0 0 2.45356 0 5.48017C0 10.8493 5.87672 13.8143 8.27404 14.8004C8.91967 15.066 9.62861 15.066 10.2742 14.8004C12.6716 13.8143 18.5483 10.8493 18.5483 5.48017C18.5483 2.45356 16.0947 0 13.0681 0C11.5956 0 10.2588 0.580733 9.27414 1.52566Z" fill="#6C7275"/>
</svg>
