<svg width="42" height="14" viewBox="0 0 42 14" fill="none" xmlns="http://www.w3.org/2000/svg">
<path d="M18.2 13.2447H14.7978L16.9257 0.235541H20.3278L18.2 13.2447Z" fill="#00579F"/>
<path d="M30.5319 0.553853C29.8609 0.29063 28.7965 0 27.4804 0C24.1206 0 21.7547 1.77137 21.7402 4.3039C21.7123 6.17239 23.4341 7.2102 24.7219 7.83321C26.0382 8.46984 26.4856 8.88536 26.4856 9.45283C26.4722 10.3244 25.422 10.7261 24.4425 10.7261C23.0842 10.7261 22.3564 10.519 21.2503 10.0341L20.8023 9.82624L20.3262 12.7465C21.1242 13.1059 22.5943 13.4249 24.1206 13.4389C27.6905 13.4389 30.0145 11.6949 30.0421 8.9961C30.0557 7.51517 29.1465 6.38043 27.1863 5.45317C25.9963 4.85793 25.2676 4.45657 25.2676 3.84754C25.2816 3.29387 25.884 2.72677 27.2272 2.72677C28.3333 2.699 29.1459 2.96185 29.7615 3.22489L30.0692 3.36303L30.5319 0.553853Z" fill="#00579F"/>
<path d="M35.0555 8.63603C35.3357 7.88867 36.4138 4.99617 36.4138 4.99617C36.3997 5.02394 36.6934 4.23501 36.8614 3.75069L37.0992 4.87164C37.0992 4.87164 37.7435 7.98561 37.8834 8.63603C37.3516 8.63603 35.7275 8.63603 35.0555 8.63603ZM39.2551 0.235541H36.6235C35.8119 0.235541 35.1954 0.47062 34.8452 1.31492L29.7917 13.2445H33.3615C33.3615 13.2445 33.9493 11.6389 34.0756 11.2931C34.4672 11.2931 37.9399 11.2931 38.4437 11.2931C38.5414 11.7498 38.8497 13.2445 38.8497 13.2445H41.9998L39.2551 0.235541Z" fill="#00579F"/>
<path d="M11.9558 0.235541L8.62389 9.10656L8.2598 7.30741C7.64381 5.23143 5.71191 2.97592 3.55602 1.85442L6.60791 13.2309H10.2056L15.5533 0.235541H11.9558Z" fill="#00579F"/>
<path d="M5.52982 0.235541H0.0559993L0 0.498426C4.26992 1.57811 7.09781 4.18065 8.25966 7.30878L7.06971 1.32921C6.87381 0.498242 6.27177 0.262952 5.52982 0.235541Z" fill="#FAA61A"/>
</svg>
