<svg width="24" height="24" viewBox="0 0 24 24" fill="none" xmlns="http://www.w3.org/2000/svg">
<path fill-rule="evenodd" clip-rule="evenodd" d="M22 12C22 17.5228 17.5228 22 12 22C6.47715 22 2 17.5228 2 12C2 6.47715 6.47715 2 12 2C17.5228 2 22 6.47715 22 12ZM8.97218 13.7648C8.84229 13.228 8.30184 12.8982 7.76505 13.0281C7.22825 13.1579 6.89839 13.6984 7.02828 14.2352C7.29119 15.3217 7.93604 16.2791 8.84129 16.958C9.7455 17.6362 10.8595 18 12.0002 18C13.141 18 14.255 17.6362 15.1592 16.958C16.0644 16.2791 16.7093 15.3217 16.9722 14.2352C17.1021 13.6984 16.7722 13.1579 16.2354 13.0281C15.6986 12.8982 15.1582 13.228 15.0283 13.7648C14.8789 14.3824 14.5075 14.9468 13.9592 15.358C13.4098 15.77 12.7192 16 12.0002 16C11.2812 16 10.5906 15.77 10.0413 15.358C9.49301 14.9468 9.12161 14.3824 8.97218 13.7648ZM10.1784 10.9839C9.63498 11.0825 9.11452 10.722 9.0159 10.1786C9.01151 10.1544 9.00599 10.1326 8.99983 10.1131C8.99366 10.1326 8.98814 10.1544 8.98376 10.1786C8.88514 10.722 8.36467 11.0825 7.82126 10.9839C7.27785 10.8853 6.91728 10.3648 7.0159 9.82144C7.09912 9.36286 7.30997 8.91656 7.65299 8.57355C8.00055 8.22599 8.47299 8 8.99983 8C9.52666 8 9.99911 8.22599 10.3467 8.57355C10.6897 8.91656 10.9005 9.36286 10.9838 9.82144C11.0824 10.3648 10.7218 10.8853 10.1784 10.9839ZM15.0159 10.1786C15.1145 10.722 15.635 11.0825 16.1784 10.9839C16.7218 10.8853 17.0824 10.3648 16.9838 9.82144C16.9005 9.36286 16.6897 8.91656 16.3467 8.57355C15.9991 8.22599 15.5267 8 14.9998 8C14.473 8 14.0005 8.22599 13.653 8.57355C13.31 8.91656 13.0991 9.36286 13.0159 9.82144C12.9173 10.3648 13.2779 10.8853 13.8213 10.9839C14.3647 11.0825 14.8851 10.722 14.9838 10.1786C14.9881 10.1544 14.9937 10.1326 14.9998 10.1131C15.006 10.1326 15.0115 10.1544 15.0159 10.1786Z" fill="white"/>
</svg>
