<svg width="16" height="16" viewBox="0 0 16 16" fill="none" xmlns="http://www.w3.org/2000/svg">
<path d="M4.2508 3.72265C4.09763 3.95241 4.15972 4.26285 4.38948 4.41603C4.61924 4.5692 4.92968 4.50711 5.08285 4.27735L4.2508 3.72265ZM5.60434 2.59373L6.02037 2.87108V2.87108L5.60434 2.59373ZM10.396 2.59373L10.812 2.31638L10.396 2.59373ZM10.9175 4.27735C11.0706 4.50711 11.3811 4.5692 11.6108 4.41603C11.8406 4.26285 11.9027 3.95241 11.7495 3.72265L10.9175 4.27735ZM9.50016 9C9.50016 9.82843 8.82859 10.5 8.00016 10.5V11.5C9.38087 11.5 10.5002 10.3807 10.5002 9H9.50016ZM8.00016 10.5C7.17174 10.5 6.50016 9.82843 6.50016 9H5.50016C5.50016 10.3807 6.61945 11.5 8.00016 11.5V10.5ZM6.50016 9C6.50016 8.17157 7.17174 7.5 8.00016 7.5V6.5C6.61945 6.5 5.50016 7.61929 5.50016 9H6.50016ZM8.00016 7.5C8.82859 7.5 9.50016 8.17157 9.50016 9H10.5002C10.5002 7.61929 9.38087 6.5 8.00016 6.5V7.5ZM5.08285 4.27735L6.02037 2.87108L5.18832 2.31638L4.2508 3.72265L5.08285 4.27735ZM6.71374 2.5H9.28658V1.5H6.71374V2.5ZM9.97996 2.87108L10.9175 4.27735L11.7495 3.72265L10.812 2.31638L9.97996 2.87108ZM9.28658 2.5C9.56521 2.5 9.82541 2.63925 9.97996 2.87108L10.812 2.31638C10.472 1.80635 9.89957 1.5 9.28658 1.5V2.5ZM6.02037 2.87108C6.17492 2.63925 6.43511 2.5 6.71374 2.5V1.5C6.10076 1.5 5.52834 1.80635 5.18832 2.31638L6.02037 2.87108ZM4.00016 4.5H12.0002V3.5H4.00016V4.5ZM14.1668 6.66667V11.3333H15.1668V6.66667H14.1668ZM12.0002 13.5H4.00016V14.5H12.0002V13.5ZM1.8335 11.3333V6.66667H0.833496V11.3333H1.8335ZM4.00016 13.5C2.80355 13.5 1.8335 12.53 1.8335 11.3333H0.833496C0.833496 13.0822 2.25126 14.5 4.00016 14.5V13.5ZM14.1668 11.3333C14.1668 12.53 13.1968 13.5 12.0002 13.5V14.5C13.7491 14.5 15.1668 13.0822 15.1668 11.3333H14.1668ZM12.0002 4.5C13.1968 4.5 14.1668 5.47005 14.1668 6.66667H15.1668C15.1668 4.91777 13.7491 3.5 12.0002 3.5V4.5ZM4.00016 3.5C2.25126 3.5 0.833496 4.91777 0.833496 6.66667H1.8335C1.8335 5.47005 2.80355 4.5 4.00016 4.5V3.5Z" fill="#FEFEFE"/>
</svg>
