<svg width="14" height="14" viewBox="0 0 14 14" fill="none" xmlns="http://www.w3.org/2000/svg">
<path d="M6.52967 0.313004C6.70368 -0.105358 7.29634 -0.10536 7.47034 0.313002L9.03631 4.07803C9.10966 4.2544 9.27553 4.37491 9.46593 4.39018L13.5306 4.71604C13.9823 4.75225 14.1654 5.3159 13.8213 5.61067L10.7244 8.26345C10.5794 8.38771 10.516 8.5827 10.5603 8.7685L11.5065 12.7349C11.6116 13.1757 11.1321 13.524 10.7455 13.2878L7.26553 11.1623C7.10252 11.0627 6.8975 11.0627 6.73448 11.1623L3.25456 13.2878C2.86788 13.524 2.38841 13.1757 2.49355 12.7349L3.43968 8.7685C3.484 8.5827 3.42065 8.38771 3.27558 8.26345L0.178734 5.61067C-0.165381 5.3159 0.0177584 4.75225 0.469415 4.71604L4.53408 4.39018C4.72449 4.37491 4.89035 4.2544 4.96371 4.07803L6.52967 0.313004Z" fill="#343839"/>
</svg>
