<svg width="14" height="14" viewBox="0 0 14 14" fill="none" xmlns="http://www.w3.org/2000/svg">
<path d="M6.52967 0.31375C6.70368 -0.104612 7.29634 -0.104613 7.47034 0.313748L9.03631 4.07878C9.10966 4.25515 9.27553 4.37566 9.46593 4.39092L13.5306 4.71678C13.9823 4.75299 14.1654 5.31664 13.8213 5.61141L10.7244 8.26419C10.5794 8.38846 10.516 8.58344 10.5603 8.76925L11.5065 12.7357C11.6116 13.1764 11.1321 13.5248 10.7455 13.2886L7.26553 11.1631C7.10252 11.0635 6.8975 11.0635 6.73448 11.1631L3.25456 13.2886C2.86788 13.5248 2.38841 13.1764 2.49355 12.7357L3.43968 8.76925C3.484 8.58344 3.42065 8.38846 3.27558 8.26419L0.178734 5.61141C-0.165381 5.31664 0.0177584 4.75299 0.469415 4.71678L4.53408 4.39092C4.72449 4.37566 4.89035 4.25515 4.96371 4.07878L6.52967 0.31375Z" fill="#343839"/>
</svg>
