<svg width="14" height="14" viewBox="0 0 14 14" fill="none" xmlns="http://www.w3.org/2000/svg">
<path d="M6.52967 0.313003C6.70367 -0.105358 7.29633 -0.105359 7.47033 0.313002L9.0363 4.07803C9.10965 4.2544 9.27552 4.37491 9.46592 4.39017L13.5306 4.71603C13.9822 4.75224 14.1654 5.31589 13.8213 5.61066L10.7244 8.26344C10.5794 8.3877 10.516 8.58269 10.5603 8.76849L11.5065 12.7349C11.6116 13.1757 11.1321 13.524 10.7454 13.2878L7.26552 11.1623C7.10251 11.0627 6.89749 11.0627 6.73448 11.1623L3.25456 13.2878C2.86788 13.524 2.38841 13.1757 2.49354 12.7349L3.43968 8.76849C3.484 8.58269 3.42065 8.3877 3.27558 8.26344L0.178733 5.61066C-0.165381 5.31589 0.0177584 4.75224 0.469415 4.71603L4.53408 4.39017C4.72448 4.37491 4.89035 4.2544 4.9637 4.07803L6.52967 0.313003Z" fill="#343839"/>
</svg>
